<?xml version="1.0" encoding="utf-8"?>
<!-- Generator: Adobe Illustrator 16.0.0, SVG Export Plug-In . SVG Version: 6.00 Build 0)  -->
<!DOCTYPE svg PUBLIC "-//W3C//DTD SVG 1.1//EN" "http://www.w3.org/Graphics/SVG/1.1/DTD/svg11.dtd">
<svg version="1.1" id="Capa_1" xmlns="http://www.w3.org/2000/svg" xmlns:xlink="http://www.w3.org/1999/xlink" x="0px" y="0px"
	 width="54px" height="58px" viewBox="0 0 54 58" enable-background="new 0 0 54 58" xml:space="preserve">
<path fill-rule="evenodd" clip-rule="evenodd" fill="#EEEDEC" d="M32.276,8.95c-1.559,0-2.945,0.176-4.188,0.527
	c-1.234,0.352-2.395,0.837-3.483,1.449v30.306c0,1.541-0.234,2.981-0.706,4.313c-0.471,1.339-1.087,2.52-1.851,3.523
	c-0.771,1.014-1.664,1.483-2.687,2.076c-1.023,0.596-2.111,0.889-3.255,0.889c-1.152,0-2.241-0.293-3.264-0.889
	c-1.023-0.593-1.916-1.063-2.687-2.076c-0.763-1.004-1.372-2.201-1.819-3.591c-0.454-1.382-0.673-2.839-0.673-4.379
	c0-1.583,0.219-3.048,0.673-4.411c0.447-1.366,1.047-2.546,1.811-3.559c0.763-1.014,1.656-1.816,2.679-2.412
	c1.015-0.585,2.021-0.912,3.15-1.154c1.437-0.311,2.475-0.311,5.829-0.268v-5.592c-2.354,0.017-3.401-0.125-5.886,0.159
	c-2.232,0.26-4.148,0.778-6.097,1.667c-1.948,0.888-3.645,2.093-5.106,3.633c-1.454,1.532-2.606,3.306-3.45,5.35
	C0.414,36.552,0,38.745,0,41.098s0.414,4.546,1.267,6.588c0.844,2.036,1.997,3.826,3.45,5.358c1.461,1.532,3.158,2.739,5.106,3.625
	C11.771,57.549,13.866,58,16.106,58c2.232,0,4.335-0.451,6.308-1.322c1.964-0.879,3.677-2.085,5.139-3.607
	c1.453-1.516,2.605-3.282,3.451-5.317c0.843-2.026,1.272-4.211,1.272-6.546V8.95z"/>
<path fill-rule="evenodd" clip-rule="evenodd" fill="#EEEDEC" d="M42.497,0c-1.549,0-2.946,0.192-4.18,0.569
	c-1.243,0.377-2.396,0.871-3.491,1.49v38.418c0,2.346,0.43,4.529,1.283,6.572c0.843,2.035,2.014,4.48,3.481,6.002
	c1.462,1.524,3.191,2.739,5.172,3.617C46.751,57.557,51.744,58,54,58v-2.402v-3.893c-1.208,0-5.212-0.301-6.25-0.896
	c-1.039-0.602-1.94-1.406-2.72-2.418c-0.779-1.022-1.396-2.211-1.85-3.584c-0.455-1.364-0.684-2.821-0.684-4.369V13.261V0z
	 M45.055,29.495H54V23.86h-8.945V29.495z"/>
</svg>
