<?xml version="1.0" encoding="utf-8"?>
<!-- Generator: Adobe Illustrator 16.0.0, SVG Export Plug-In . SVG Version: 6.00 Build 0)  -->
<!DOCTYPE svg PUBLIC "-//W3C//DTD SVG 1.1//EN" "http://www.w3.org/Graphics/SVG/1.1/DTD/svg11.dtd">
<svg version="1.1" id="Capa_1" xmlns="http://www.w3.org/2000/svg" xmlns:xlink="http://www.w3.org/1999/xlink" x="0px" y="0px"
	 width="96px" height="96px" viewBox="0 0 96 96" enable-background="new 0 0 96 96" xml:space="preserve">
<circle fill-rule="evenodd" clip-rule="evenodd" fill="#222222" cx="48.1" cy="48.1" r="48.1"/>
<path fill-rule="evenodd" clip-rule="evenodd" fill="#EEEEEE" d="M48.973,25.852c-1.524,0-2.881,0.167-4.096,0.5
	c-1.207,0.333-2.342,0.793-3.405,1.373v28.733c0,1.46-0.23,2.826-0.689,4.088c-0.46,1.27-1.064,2.389-1.811,3.342
	c-0.753,0.96-1.626,1.405-2.627,1.968c-1,0.564-2.063,0.842-3.183,0.842c-1.127,0-2.191-0.277-3.19-0.842
	c-1-0.563-1.874-1.008-2.627-1.968c-0.746-0.953-1.341-2.088-1.778-3.405c-0.444-1.31-0.658-2.691-0.658-4.151
	c0-1.5,0.214-2.89,0.658-4.183c0.437-1.295,1.024-2.413,1.77-3.374c0.747-0.96,1.619-1.722,2.62-2.286
	c0.992-0.556,1.976-0.865,3.08-1.096c1.405-0.293,2.421-0.293,5.699-0.253v-5.303c-2.302,0.016-3.326-0.119-5.755,0.151
	c-2.183,0.246-4.056,0.739-5.961,1.58c-1.905,0.841-3.563,1.984-4.993,3.444c-1.421,1.453-2.548,3.136-3.373,5.073
	c-0.833,1.937-1.238,4.016-1.238,6.246s0.405,4.31,1.238,6.246c0.825,1.93,1.952,3.628,3.373,5.08
	c1.429,1.452,3.088,2.597,4.993,3.437c1.905,0.834,3.953,1.263,6.144,1.263c2.183,0,4.239-0.429,6.168-1.254
	c1.92-0.833,3.595-1.977,5.024-3.421c1.42-1.437,2.547-3.111,3.373-5.041c0.825-1.92,1.246-3.992,1.246-6.206V25.852z"/>
<path fill-rule="evenodd" clip-rule="evenodd" fill="#EEEEEE" d="M58.966,17.367c-1.515,0-2.881,0.183-4.087,0.54
	c-1.215,0.357-2.343,0.825-3.414,1.413v36.424c0,2.223,0.421,4.294,1.255,6.231c0.825,1.929,1.969,4.247,3.405,5.69
	c1.428,1.444,3.119,2.597,5.056,3.429c1.945,0.842,6.826,1.263,9.032,1.263v-2.278v-3.69c-1.182,0-5.096-0.286-6.111-0.85
	c-1.016-0.571-1.896-1.334-2.659-2.293c-0.762-0.969-1.365-2.096-1.809-3.398c-0.445-1.293-0.668-2.674-0.668-4.143V29.939V17.367z
	 M61.466,45.33h8.747v-5.342h-8.747V45.33z"/>
</svg>
